<svg xmlns="http://www.w3.org/2000/svg" width="820" height="300" viewBox="0 0 820 300"><rect width="100%" height="100%" fill="#0d1117"/><line x1="44" y1="24" x2="800" y2="24" stroke="#21262d" stroke-width="1"/><line x1="44" y1="82" x2="800" y2="82" stroke="#21262d" stroke-width="1"/><line x1="44" y1="140" x2="800" y2="140" stroke="#21262d" stroke-width="1"/><line x1="44" y1="198" x2="800" y2="198" stroke="#21262d" stroke-width="1"/><line x1="44" y1="256" x2="800" y2="256" stroke="#21262d" stroke-width="1"/><polygon points="44.0,256.0 44.0,243.3 52.5,256.0 61.0,249.6 69.5,252.8 78.0,256.0 86.5,256.0 95.0,256.0 103.5,256.0 112.0,256.0 120.4,256.0 128.9,256.0 137.4,256.0 145.9,256.0 154.4,256.0 162.9,256.0 171.4,256.0 179.9,249.6 188.4,256.0 196.9,256.0 205.4,256.0 213.9,256.0 222.4,256.0 230.9,252.8 239.4,252.8 247.9,249.6 256.4,256.0 264.9,252.8 273.3,252.8 281.8,252.8 290.3,252.8 298.8,256.0 307.3,252.8 315.8,256.0 324.3,246.5 332.8,243.3 341.3,236.9 349.8,249.6 358.3,252.8 366.8,252.8 375.3,252.8 383.8,252.8 392.3,256.0 400.8,256.0 409.3,233.8 417.8,236.9 426.2,256.0 434.7,256.0 443.2,243.3 451.7,246.5 460.2,227.4 468.7,249.6 477.2,246.5 485.7,256.0 494.2,256.0 502.7,256.0 511.2,256.0 519.7,256.0 528.2,256.0 536.7,256.0 545.2,256.0 553.7,256.0 562.2,256.0 570.7,256.0 579.1,256.0 587.6,249.6 596.1,256.0 604.6,256.0 613.1,256.0 621.6,249.6 630.1,252.8 638.6,221.0 647.1,103.5 655.6,163.8 664.1,202.0 672.6,236.9 681.1,249.6 689.6,252.8 698.1,243.3 706.6,252.8 715.1,256.0 723.6,208.3 732.0,224.2 740.5,230.6 749.0,217.9 757.5,246.5 766.0,246.5 774.5,211.5 783.0,217.9 791.5,154.3 800.0,24.0 800.0,256.0" fill="rgba(46,160,67,0.25)"/><polyline points="44.0,243.3 52.5,256.0 61.0,249.6 69.5,252.8 78.0,256.0 86.5,256.0 95.0,256.0 103.5,256.0 112.0,256.0 120.4,256.0 128.9,256.0 137.4,256.0 145.9,256.0 154.4,256.0 162.9,256.0 171.4,256.0 179.9,249.6 188.4,256.0 196.9,256.0 205.4,256.0 213.9,256.0 222.4,256.0 230.9,252.8 239.4,252.8 247.9,249.6 256.4,256.0 264.9,252.8 273.3,252.8 281.8,252.8 290.3,252.8 298.8,256.0 307.3,252.8 315.8,256.0 324.3,246.5 332.8,243.3 341.3,236.9 349.8,249.6 358.3,252.8 366.8,252.8 375.3,252.8 383.8,252.8 392.3,256.0 400.8,256.0 409.3,233.8 417.8,236.9 426.2,256.0 434.7,256.0 443.2,243.3 451.7,246.5 460.2,227.4 468.7,249.6 477.2,246.5 485.7,256.0 494.2,256.0 502.7,256.0 511.2,256.0 519.7,256.0 528.2,256.0 536.7,256.0 545.2,256.0 553.7,256.0 562.2,256.0 570.7,256.0 579.1,256.0 587.6,249.6 596.1,256.0 604.6,256.0 613.1,256.0 621.6,249.6 630.1,252.8 638.6,221.0 647.1,103.5 655.6,163.8 664.1,202.0 672.6,236.9 681.1,249.6 689.6,252.8 698.1,243.3 706.6,252.8 715.1,256.0 723.6,208.3 732.0,224.2 740.5,230.6 749.0,217.9 757.5,246.5 766.0,246.5 774.5,211.5 783.0,217.9 791.5,154.3 800.0,24.0" fill="none" stroke="#2ea043" stroke-width="2.5" stroke-linejoin="round" stroke-linecap="round"/><circle cx="44.0" cy="243.3" r="2.2" fill="#56d364"/><circle cx="52.5" cy="256.0" r="2.2" fill="#56d364"/><circle cx="61.0" cy="249.6" r="2.2" fill="#56d364"/><circle cx="69.5" cy="252.8" r="2.2" fill="#56d364"/><circle cx="78.0" cy="256.0" r="2.2" fill="#56d364"/><circle cx="86.5" cy="256.0" r="2.2" fill="#56d364"/><circle cx="95.0" cy="256.0" r="2.2" fill="#56d364"/><circle cx="103.5" cy="256.0" r="2.2" fill="#56d364"/><circle cx="112.0" cy="256.0" r="2.2" fill="#56d364"/><circle cx="120.4" cy="256.0" r="2.2" fill="#56d364"/><circle cx="128.9" cy="256.0" r="2.2" fill="#56d364"/><circle cx="137.4" cy="256.0" r="2.2" fill="#56d364"/><circle cx="145.9" cy="256.0" r="2.2" fill="#56d364"/><circle cx="154.4" cy="256.0" r="2.2" fill="#56d364"/><circle cx="162.9" cy="256.0" r="2.2" fill="#56d364"/><circle cx="171.4" cy="256.0" r="2.2" fill="#56d364"/><circle cx="179.9" cy="249.6" r="2.2" fill="#56d364"/><circle cx="188.4" cy="256.0" r="2.2" fill="#56d364"/><circle cx="196.9" cy="256.0" r="2.2" fill="#56d364"/><circle cx="205.4" cy="256.0" r="2.2" fill="#56d364"/><circle cx="213.9" cy="256.0" r="2.2" fill="#56d364"/><circle cx="222.4" cy="256.0" r="2.2" fill="#56d364"/><circle cx="230.9" cy="252.8" r="2.2" fill="#56d364"/><circle cx="239.4" cy="252.8" r="2.2" fill="#56d364"/><circle cx="247.9" cy="249.6" r="2.2" fill="#56d364"/><circle cx="256.4" cy="256.0" r="2.2" fill="#56d364"/><circle cx="264.9" cy="252.8" r="2.2" fill="#56d364"/><circle cx="273.3" cy="252.8" r="2.2" fill="#56d364"/><circle cx="281.8" cy="252.8" r="2.2" fill="#56d364"/><circle cx="290.3" cy="252.8" r="2.2" fill="#56d364"/><circle cx="298.8" cy="256.0" r="2.2" fill="#56d364"/><circle cx="307.3" cy="252.8" r="2.2" fill="#56d364"/><circle cx="315.8" cy="256.0" r="2.2" fill="#56d364"/><circle cx="324.3" cy="246.5" r="2.2" fill="#56d364"/><circle cx="332.8" cy="243.3" r="2.2" fill="#56d364"/><circle cx="341.3" cy="236.9" r="2.2" fill="#56d364"/><circle cx="349.8" cy="249.6" r="2.2" fill="#56d364"/><circle cx="358.3" cy="252.8" r="2.2" fill="#56d364"/><circle cx="366.8" cy="252.8" r="2.2" fill="#56d364"/><circle cx="375.3" cy="252.8" r="2.2" fill="#56d364"/><circle cx="383.8" cy="252.8" r="2.2" fill="#56d364"/><circle cx="392.3" cy="256.0" r="2.2" fill="#56d364"/><circle cx="400.8" cy="256.0" r="2.2" fill="#56d364"/><circle cx="409.3" cy="233.8" r="2.2" fill="#56d364"/><circle cx="417.8" cy="236.9" r="2.2" fill="#56d364"/><circle cx="426.2" cy="256.0" r="2.2" fill="#56d364"/><circle cx="434.7" cy="256.0" r="2.2" fill="#56d364"/><circle cx="443.2" cy="243.3" r="2.2" fill="#56d364"/><circle cx="451.7" cy="246.5" r="2.2" fill="#56d364"/><circle cx="460.2" cy="227.4" r="2.2" fill="#56d364"/><circle cx="468.7" cy="249.6" r="2.2" fill="#56d364"/><circle cx="477.2" cy="246.5" r="2.2" fill="#56d364"/><circle cx="485.7" cy="256.0" r="2.2" fill="#56d364"/><circle cx="494.2" cy="256.0" r="2.2" fill="#56d364"/><circle cx="502.7" cy="256.0" r="2.2" fill="#56d364"/><circle cx="511.2" cy="256.0" r="2.2" fill="#56d364"/><circle cx="519.7" cy="256.0" r="2.2" fill="#56d364"/><circle cx="528.2" cy="256.0" r="2.2" fill="#56d364"/><circle cx="536.7" cy="256.0" r="2.2" fill="#56d364"/><circle cx="545.2" cy="256.0" r="2.2" fill="#56d364"/><circle cx="553.7" cy="256.0" r="2.2" fill="#56d364"/><circle cx="562.2" cy="256.0" r="2.2" fill="#56d364"/><circle cx="570.7" cy="256.0" r="2.2" fill="#56d364"/><circle cx="579.1" cy="256.0" r="2.2" fill="#56d364"/><circle cx="587.6" cy="249.6" r="2.2" fill="#56d364"/><circle cx="596.1" cy="256.0" r="2.2" fill="#56d364"/><circle cx="604.6" cy="256.0" r="2.2" fill="#56d364"/><circle cx="613.1" cy="256.0" r="2.2" fill="#56d364"/><circle cx="621.6" cy="249.6" r="2.2" fill="#56d364"/><circle cx="630.1" cy="252.8" r="2.2" fill="#56d364"/><circle cx="638.6" cy="221.0" r="2.2" fill="#56d364"/><circle cx="647.1" cy="103.5" r="2.2" fill="#56d364"/><circle cx="655.6" cy="163.8" r="2.2" fill="#56d364"/><circle cx="664.1" cy="202.0" r="2.2" fill="#56d364"/><circle cx="672.6" cy="236.9" r="2.2" fill="#56d364"/><circle cx="681.1" cy="249.6" r="2.2" fill="#56d364"/><circle cx="689.6" cy="252.8" r="2.2" fill="#56d364"/><circle cx="698.1" cy="243.3" r="2.2" fill="#56d364"/><circle cx="706.6" cy="252.8" r="2.2" fill="#56d364"/><circle cx="715.1" cy="256.0" r="2.2" fill="#56d364"/><circle cx="723.6" cy="208.3" r="2.2" fill="#56d364"/><circle cx="732.0" cy="224.2" r="2.2" fill="#56d364"/><circle cx="740.5" cy="230.6" r="2.2" fill="#56d364"/><circle cx="749.0" cy="217.9" r="2.2" fill="#56d364"/><circle cx="757.5" cy="246.5" r="2.2" fill="#56d364"/><circle cx="766.0" cy="246.5" r="2.2" fill="#56d364"/><circle cx="774.5" cy="211.5" r="2.2" fill="#56d364"/><circle cx="783.0" cy="217.9" r="2.2" fill="#56d364"/><circle cx="791.5" cy="154.3" r="2.2" fill="#56d364"/><circle cx="800.0" cy="24.0" r="2.2" fill="#56d364"/><text x="44" y="280" fill="#8b949e" font-size="13" text-anchor="middle">2026-05-20</text><text x="422" y="280" fill="#8b949e" font-size="13" text-anchor="middle">2026-07-04</text><text x="800" y="280" fill="#8b949e" font-size="13" text-anchor="middle">2026-08-17</text><text x="44" y="18" fill="#8b949e" font-size="13">每日提交数 (近90天)</text><text x="800" y="18" fill="#8b949e" font-size="13" text-anchor="end">峰值 73</text></svg>