<svg xmlns="http://www.w3.org/2000/svg" width="520" height="420" viewBox="0 0 520 420"><rect width="100%" height="100%" fill="#0d1117"/><path d="M 185.0 90.0 A 120 120 0 0 1 228.3 98.1 L 208.8 148.5 A 66 66 0 0 0 185.0 144.0 Z" fill="#56d364"/><path d="M 228.3 98.1 A 120 120 0 0 1 292.4 156.5 L 244.1 180.6 A 66 66 0 0 0 208.8 148.5 Z" fill="#7ee787"/><path d="M 292.4 156.5 A 120 120 0 1 1 185.0 90.0 L 185.0 144.0 A 66 66 0 1 0 244.1 180.6 Z" fill="#aff5b4"/><text x="185" y="204" fill="#e6edf3" font-size="22" text-anchor="middle" font-family="sans-serif">共 17</text><text x="185" y="228" fill="#8b949e" font-size="13" text-anchor="middle" font-family="sans-serif">次提交</text><rect x="330" y="36" width="14" height="14" rx="3" fill="#2ea043"/><text x="352" y="48" fill="#c9d1d9" font-size="13" font-family="sans-serif">0-3点  0 (0%)</text><rect x="330" y="66" width="14" height="14" rx="3" fill="#3fb950"/><text x="352" y="78" fill="#c9d1d9" font-size="13" font-family="sans-serif">4-7点  0 (0%)</text><rect x="330" y="96" width="14" height="14" rx="3" fill="#56d364"/><text x="352" y="108" fill="#c9d1d9" font-size="13" font-family="sans-serif">8-11点  1 (6%)</text><rect x="330" y="126" width="14" height="14" rx="3" fill="#7ee787"/><text x="352" y="138" fill="#c9d1d9" font-size="13" font-family="sans-serif">12-15点  2 (12%)</text><rect x="330" y="156" width="14" height="14" rx="3" fill="#aff5b4"/><text x="352" y="168" fill="#c9d1d9" font-size="13" font-family="sans-serif">16-19点  14 (82%)</text><rect x="330" y="186" width="14" height="14" rx="3" fill="#d9ffdd"/><text x="352" y="198" fill="#c9d1d9" font-size="13" font-family="sans-serif">20-23点  0 (0%)</text></svg>